<svg width="100" height="100" viewBox="0 0 100 100" fill="none" xmlns="http://www.w3.org/2000/svg">
<path d="M94.4992 5.50078C90.8304 1.83192 86.4157 0 81.2503 0H18.7497C13.5843 0 9.16963 1.83192 5.50078 5.50078C1.83192 9.16963 0 13.5843 0 18.7497V81.2503C0 86.4157 1.83192 90.8304 5.50078 94.4992C9.16963 98.1681 13.5843 100 18.7497 100H33.335C34.286 100 35.0018 99.965 35.4823 99.8999C36.0413 99.7878 36.5459 99.4897 36.9138 99.054C37.3893 98.5535 37.6295 97.8277 37.6295 96.8767L37.5945 92.4471C37.5745 89.6241 37.5644 87.3918 37.5644 85.74L36.0629 86.0003C35.1119 86.1755 33.9106 86.2506 32.4541 86.2305C30.9359 86.2025 29.4226 86.0502 27.9293 85.7751C26.3397 85.4816 24.8432 84.8123 23.5647 83.823C22.2258 82.8101 21.2272 81.4134 20.7017 79.8188L20.0511 78.3172C19.5026 77.1327 18.8136 76.0186 17.9989 74.9987C17.0679 73.7825 16.1219 72.9616 15.1659 72.5262L14.7155 72.2008C14.4013 71.9758 14.1156 71.7137 13.8646 71.42C13.6248 71.1474 13.4274 70.8403 13.2789 70.509C13.1488 70.2037 13.2589 69.9535 13.6043 69.7582C13.9547 69.558 14.5803 69.4629 15.4963 69.4629L16.7976 69.6631C17.6635 69.8333 18.7397 70.3539 20.016 71.2198C21.3077 72.1004 22.3866 73.258 23.1743 74.6083C24.1754 76.3852 25.3766 77.7416 26.7881 78.6776C28.1996 79.6086 29.6211 80.0791 31.0526 80.0791C32.4841 80.0791 33.7204 79.969 34.7665 79.7537C35.7781 79.5446 36.7611 79.2152 37.6946 78.7727C38.085 75.8697 39.1461 73.6273 40.8829 72.0657C38.6324 71.845 36.402 71.4535 34.2109 70.8944C32.0726 70.307 30.0162 69.4545 28.0895 68.3568C26.0736 67.2593 24.293 65.7763 22.849 63.9922C21.4625 62.2554 20.3213 59.978 19.4304 57.16C18.5445 54.3371 18.099 51.0786 18.099 47.3898C18.099 42.1392 19.8108 37.6696 23.2394 33.9757C21.6377 30.0315 21.7879 25.6019 23.6949 20.7017C24.9562 20.3063 26.8232 20.6016 29.2958 21.5777C31.7684 22.5537 33.5803 23.3896 34.7315 24.0803C35.8827 24.781 36.8036 25.3666 37.4994 25.8421C41.5685 24.7097 45.7737 24.1405 49.9975 24.1504C54.297 24.1504 58.4614 24.716 62.5006 25.8421L64.9732 24.2805C66.8751 23.1386 68.8812 22.1799 70.9645 21.4175C73.2669 20.5466 75.0188 20.3113 76.2401 20.7017C78.1921 25.6069 78.3623 30.0315 76.7556 33.9807C80.1842 37.6696 81.901 42.1392 81.901 47.3948C81.901 51.0836 81.4555 54.3521 80.5646 57.19C79.6787 60.033 78.5275 62.3104 77.116 64.0272C75.6465 65.7885 73.8585 67.2573 71.8454 68.3568C69.7432 69.528 67.7011 70.3739 65.724 70.8944C63.5331 71.4553 61.3026 71.8485 59.052 72.0707C61.3044 74.0227 62.4356 77.101 62.4356 81.3104V96.8767C62.4356 97.6125 62.5407 98.2081 62.7609 98.6636C62.8621 98.883 63.0065 99.0799 63.1853 99.2424C63.3642 99.4049 63.5739 99.5298 63.802 99.6096C64.2825 99.7798 64.7029 99.8899 65.0733 99.9299C65.4437 99.98 65.9743 99.995 66.665 99.995H81.2503C86.4157 99.995 90.8304 98.1631 94.4992 94.4942C98.1631 90.8304 100 86.4107 100 81.2453V18.7497C100 13.5843 98.1631 9.16963 94.4942 5.50078H94.4992Z" fill="#C43219"/>
</svg>
