<svg width="102" height="96" viewBox="0 0 102 96" fill="none" xmlns="http://www.w3.org/2000/svg">
<path d="M91.5 83.4167H81.3333V31.2812L50.8333 53.625L20.3333 31.2812V83.4167H10.1667V11.9167H16.2667L50.8333 37.2396L85.4 11.9167H91.5V83.4167ZM91.5 0H10.1667C4.52417 0 0 5.30292 0 11.9167V83.4167C0 86.5772 1.07113 89.6082 2.97775 91.843C4.88437 94.0778 7.4703 95.3333 10.1667 95.3333H91.5C94.1964 95.3333 96.7823 94.0778 98.6889 91.843C100.596 89.6082 101.667 86.5772 101.667 83.4167V11.9167C101.667 8.75617 100.596 5.72512 98.6889 3.49031C96.7823 1.2555 94.1964 0 91.5 0V0Z" fill="#C43219"/>
</svg>
